<?xml version="1.0" encoding="UTF-8"?>
<svg width="87px" height="8px" viewBox="0 0 87 8" version="1.1" xmlns="http://www.w3.org/2000/svg" xmlns:xlink="http://www.w3.org/1999/xlink">
    <!-- Generator: Sketch 52.6 (67491) - http://www.bohemiancoding.com/sketch -->
    <title>5f3d5de92973d5374aeb689f_Underline</title>
    <desc>Created with Sketch.</desc>
    <g id="Page-1" stroke="none" stroke-width="1" fill="none" fill-rule="evenodd">
        <g id="5f3d5de92973d5374aeb689f_Underline" fill="#FB9CB2">
            <path d="M82.3428866,1.1649882 C86.4086854,1.8036864 85.7443067,1.3256982 85.635786,1.6404911 C85.926141,1.7469408 86.2193955,1.8542189 86.6543067,2.0136864 C86.3154901,2.2497811 86.1017623,2.3988935 85.8855493,2.5492485 C85.9340108,2.6047515 86.0019398,2.6826213 86.070283,2.7609053 C86.0201647,2.797355 85.9630049,2.8756391 85.9120582,2.8719112 C84.6524724,2.778716 83.4347209,3.2094852 82.1647801,3.122503 C80.8911114,3.0355207 79.5925907,2.986645 78.3313481,3.1398994 C77.3041292,3.2641598 76.2860227,3.3026805 75.2596321,3.3399586 C74.9431824,3.351142 74.6847209,3.0843964 74.299928,3.2977101 C74.0120582,3.4575917 73.5647209,3.3296036 73.1877978,3.3296036 L71.9460227,3.3296036 C71.5695138,3.3296036 71.1934191,3.3283609 70.8169103,3.3300178 C70.4420582,3.3308462 70.0667919,3.3337456 69.6919398,3.3424438 C69.6646026,3.342858 69.6385079,3.3921479 69.5432416,3.4874142 C69.8965552,3.5329763 70.1947801,3.5710828 70.4934191,3.6087751 C70.4917623,3.6568225 70.4901055,3.7044556 70.4888629,3.7520888 C70.0962002,3.7620296 69.7035375,3.7756982 69.311289,3.7798402 C68.8970878,3.7848107 68.4833008,3.7827396 68.0690996,3.779426 C67.9986854,3.7790118 67.8938925,3.7827396 67.8632416,3.7417337 C67.4465552,3.1821479 66.9768511,3.2513195 66.4218215,3.5379467 C66.2134783,3.6452249 65.9036558,3.5553432 65.6402239,3.5553432 C62.1021174,3.5553432 58.5640108,3.5495444 55.0263185,3.5636272 C54.6411114,3.565284 54.1962594,3.3755799 53.8748392,3.7790118 C53.859928,3.7968225 53.7833008,3.7972367 53.7675611,3.7790118 C53.4498688,3.4054024 53.087857,3.9629172 52.8351943,3.7653432 C52.5088037,3.5106095 52.2892771,3.554929 51.9819398,3.7636864 C51.8883304,3.8278876 51.6431233,3.7131538 51.490283,3.635284 C51.2765552,3.5259349 51.2902239,3.3747515 51.488212,3.2422071 C51.4492771,3.1958166 51.4177978,3.1237456 51.3697505,3.1096627 C51.3043067,3.0910237 51.1862594,3.0910237 51.1618215,3.1291302 C51.0876795,3.2442781 51.0781529,3.4116154 50.9874428,3.5023254 C50.8669103,3.6232722 50.6941884,3.762858 50.5425907,3.764929 C50.281644,3.7682426 49.9602239,3.5512012 49.7713481,3.6439822 C49.4677387,3.7935089 49.2772061,3.7748698 48.9764961,3.6522663 C48.7714665,3.5690118 48.467857,3.7698994 48.2069103,3.7740414 C47.1560818,3.7914379 46.1048392,3.7810828 45.0784487,3.7810828 C44.9748984,3.6129172 44.887502,3.4708462 44.8001055,3.3296036 C44.6592771,3.4493077 44.5188629,3.569426 44.2558452,3.7935089 C43.8163777,3.9045148 43.0542475,3.4857574 42.5953126,4.248716 C42.460283,4.1000178 42.3351943,3.9620888 42.2237742,3.8394852 C41.3307564,4.0892485 40.4667327,4.125284 39.6039517,3.8299586 C38.7117623,4.2416746 37.7872653,3.8829763 36.8855493,4.0242189 C36.9050168,3.8162899 36.9522357,3.5806095 36.92407,3.571497 C36.5728274,3.4534497 36.6291588,3.7740414 36.5305789,3.9890118 L35.3343659,3.9890118 C35.2738925,4.1534497 35.2258452,4.2839231 35.1753126,4.4222663 C35.1227091,4.3961716 35.0498097,4.3837456 35.0224724,4.341497 C34.8079162,4.0142781 34.4413481,3.8800769 34.1518215,4.0262899 C33.4737742,4.3696627 32.7762594,4.1878284 32.089928,4.2263491 C31.4988629,4.2594852 30.9044842,4.2329763 30.3001647,4.3965858 C30.6621765,4.4330355 31.0241884,4.4698994 31.3862002,4.5059349 C30.5586262,4.5784201 29.6788629,5.0452249 29.0596321,4.2955207 C28.6255493,4.3580651 28.2784487,4.4458757 27.9296913,4.4520888 C26.8465552,4.4707278 25.7625907,4.458716 24.7018215,4.458716 C24.6351351,4.6509053 24.5891588,4.7817929 24.521644,4.9777101 C24.3389813,4.7026805 24.190283,4.4785976 24.0415848,4.2545148 C23.9649576,4.5643373 23.7868511,4.8857574 23.4637742,4.6637456 C23.1220582,4.4288935 22.9265552,4.5900178 22.6138333,4.6525621 C22.0422357,4.7664675 21.431289,4.6848698 20.8195138,4.8310828 C21.099928,4.8749882 21.3803422,4.9188935 21.6752534,4.9656982 C21.6284487,5.0390118 21.5977978,5.1301361 21.5663185,5.1305503 C20.7383304,5.1384201 19.907857,5.175284 19.082354,5.1243373 C18.4734783,5.086645 17.8857268,4.8141006 17.256141,4.9118521 C17.1538333,4.9280059 17.0535966,4.9574142 16.9508747,5.0849882 C17.2528274,5.1168817 17.5547801,5.1483609 17.8571469,5.1798402 C16.9127682,5.2771775 15.987857,5.5348107 15.0360227,5.1819112 C14.6147801,5.0257574 14.0879162,5.1558166 13.5796913,5.2759349 C13.7872061,5.3268817 13.9951351,5.3778284 14.2096913,5.430432 C14.1728274,5.4896627 14.1434191,5.5816154 14.1119398,5.5820296 C13.7366736,5.5898994 13.3614073,5.5836864 12.986141,5.5812012 C12.784425,5.1048698 12.4828866,5.8123254 12.1763777,5.4991893 C11.9767327,5.2958166 11.561289,5.7742189 11.157857,5.4030947 C10.9379162,5.2017929 10.381644,5.3674734 9.96122978,5.5136864 C10.2515848,5.5588343 10.5419398,5.6048107 10.8505197,5.652858 C10.7846617,5.724929 10.7448984,5.8081834 10.7030641,5.8090118 C10.1389221,5.8172959 9.57312327,5.7899586 9.00980966,5.8197811 C7.91093392,5.877355 6.79590433,5.8727988 5.72270907,6.0774142 C5.14407002,6.1875917 4.57661439,6.2103728 4.00418836,6.2799586 C3.51294575,6.3391893 3.03412919,6.5123254 2.84235404,7.1622071 C2.64643688,7.1622071 2.21111144,7.2396627 2.17259073,7.1489527 C2.00483925,6.7521479 1.49495759,6.7107278 1.38063806,6.369426 C1.27294575,6.0467633 1.09566765,5.947355 0.828507885,5.7974142 C0.289632145,5.4946331 0.173655814,4.9155799 0.446200193,4.3510237 C0.297916169,4.1936272 0.147561139,4.0349882 0.000933920434,3.8792485 C0.00756113937,3.7976509 -0.0156341269,3.6994852 0.0233007843,3.6559941 C0.44537179,3.1771775 0.939928003,2.9319704 1.61424753,2.8483018 C2.71892209,2.7112012 3.79874457,2.3727988 4.93075641,2.4258166 C5.57939546,2.0298402 6.29803451,2.2696627 6.98229487,2.1959349 C7.5174428,2.1387751 8.04720611,2.0203136 8.58318244,1.9822071 C9.10714694,1.9445148 9.69117061,2.1159941 10.1505197,1.9399586 C10.8115848,1.6872959 11.4593955,1.7191893 12.1005789,1.7680651 C12.9248392,1.8310237 13.6844842,1.4984201 14.4925907,1.5178876 C15.3201647,1.5369408 16.1829458,1.6715562 16.9695138,1.4901361 C18.4875611,1.1397219 20.0151351,1.4884793 21.509573,1.2730947 C23.3622949,1.0059349 25.2328274,1.2656391 27.0598688,1.0312012 C29.5206381,0.7147515 31.9718807,0.9549882 34.4239517,0.8456391 C34.7242475,0.8323846 35.025786,0.8472959 35.3269103,0.8431538 C35.5804014,0.8398402 35.8587446,0.9102544 36.0281529,0.6281834 C36.162354,0.9848107 36.4535375,0.5925621 36.6883895,0.7644556 C36.8321174,0.8696627 37.1899872,0.6517929 37.4567327,0.6248698 C37.7549576,0.5954615 38.0581529,0.6182426 38.3592771,0.6182426 L39.149573,0.6182426 L40.0529458,0.6182426 L40.9563185,0.6182426 L41.7466144,0.6182426 C42.0477387,0.6182426 42.3509339,0.5962899 42.649573,0.6236272 C43.0024724,0.6563491 43.351644,0.5374734 43.7173836,0.7876509 C43.8934191,0.9081834 44.3026499,0.6360533 44.6083304,0.627355 C45.5485671,0.6020888 46.4904605,0.6343964 47.4306972,0.6095444 C47.7806972,0.6008462 48.1741884,0.773568 48.4728274,0.3970592 C48.6683304,0.1497811 48.8145434,0.8286568 49.1106972,0.4587751 C49.2038925,0.3419704 49.6731824,0.322503 49.7233008,0.4065858 C50.007857,0.8808462 50.3296913,0.1609645 50.5463185,0.4529763 C50.8536558,0.8663491 51.0446026,0.3800769 51.2922949,0.3958166 C51.4322949,0.4045148 51.5706381,0.4480059 51.7098097,0.474929 C51.95336,0.5229763 52.3402239,0.689071 52.4160227,0.5975325 C52.7250168,0.2239231 53.0862002,0.5900769 53.4250168,0.4467633 C53.7758452,0.2976509 54.2335375,0.3933314 54.644425,0.3933314 C62.0209339,0.3920888 69.3982712,0.4032722 76.7751943,0.3792485 C77.7589221,0.3759349 78.7745434,0.6227988 79.7301055,0.1663491 C80.2325316,0.5979467 80.7287446,0.118716 81.2377978,0.1410828 C82.8146617,0.2102544 84.3960818,0.1663491 86.0843659,0.1663491 C86.0276203,0.3423846 85.9932416,0.5954615 85.9360818,0.6008462 C85.1391588,0.6737456 84.3670878,0.8924438 83.5465552,0.8622071 C81.8926499,0.8017337 80.2350168,0.8431538 78.5790404,0.8485385 C78.5193955,0.8489527 78.4597505,0.9189527 78.3996913,0.956645 C78.4750759,0.9943373 78.5463185,1.047355 78.6258452,1.0672367 C78.8250759,1.1165266 79.0077387,1.3667041 79.2421765,1.0813195 C79.3026499,1.0071775 79.5296321,1.0701361 79.6799872,1.0701361 C81.859928,1.0701361 84.0394546,1.0701361 82.3428866,1.1649882 C78.4096321,1.2204911 78.4137742,1.1803136 78.4179162,1.1405503 C78.0683304,1.0465266 77.7233008,0.9230947 77.3670878,0.8696627 C77.178212,0.841497 75.9832416,0.8829172 75.8117623,0.8588935 C75.6655493,0.8381834 75.4398097,0.7835089 75.3780937,0.8551657 C75.0711706,1.2097219 74.6805789,1.0630947 74.3293363,1.0639231 C68.9824132,1.0726213 63.6354901,1.0734497 58.2889813,1.0606095 C57.9750168,1.0601953 57.6171469,1.2267041 57.3321765,0.9143964 C57.2779162,0.8547515 57.0811706,0.8257574 57.0418215,0.8675917 C56.6992771,1.2383018 56.2656085,1.0237456 55.8770878,1.0647515 C55.0814073,1.1484201 54.267502,0.9284793 53.4772061,1.2747515 C53.2539517,1.372503 52.9134783,1.2316746 52.6343067,1.1691302 C52.0966736,1.0485976 51.5631824,0.9620296 51.0392179,1.2088935 C50.856141,1.2950473 50.6299872,0.9719704 50.4792179,1.2776509 C50.1901055,0.9139822 49.7050759,0.9727988 49.45407,1.1045148 C49.0353126,1.3248698 48.7325316,0.907355 48.3796321,1.0688935 C48.3166736,1.0974734 48.2218215,1.0883609 48.1828866,1.1330947 C47.9973245,1.3455799 47.8639517,1.2971183 47.6212298,1.1654024 C47.3859635,1.0378284 47.0173245,1.0017929 46.7683895,1.0929172 C46.4457268,1.2113787 46.0551351,1.302503 45.8070286,1.2519704 C45.4214073,1.1736864 45.0950168,1.2797219 44.7429458,1.2929763 C41.9880937,1.3940414 39.2324132,1.1558757 36.4738333,1.4946923 C34.4148392,1.747355 32.3272653,1.4043964 30.2392771,1.7084201 C28.3401647,1.9842781 26.3934191,1.6367633 24.4595138,1.940787 C22.9348392,2.1806095 21.3600463,1.8405503 19.8080345,2.173568 C19.0881529,2.3280651 18.3036558,2.1524438 17.5556085,2.2133314 C16.8692771,2.2696627 16.1990996,2.1114379 15.4779753,2.360787 C14.8057268,2.5931538 13.9930641,2.4171183 13.2425316,2.428716 C13.1265552,2.430787 13.0109931,2.4734497 12.895431,2.4974734 C13.0486854,2.6515562 13.1886854,2.6556982 13.3282712,2.6507278 C14.6541292,2.6047515 15.9729458,2.6668817 17.3066736,2.4610237 C18.9083895,2.2141598 20.548212,2.5285385 22.1847209,2.2356982 C23.7031824,1.9639822 25.2986854,2.4407278 26.827502,1.9693669 C27.0424724,1.9030947 27.2255493,2.4030355 27.4380345,1.9880059 C27.6828274,2.3599586 27.9118807,1.9648107 28.1483895,1.9598402 C30.0011114,1.9213195 31.8637742,2.1454024 33.7053126,1.7564675 C33.9521765,1.7042781 34.321644,1.6616154 34.4628866,1.7954024 C34.7830641,2.0985976 34.9396321,1.6251657 35.2175611,1.7299586 C35.4482712,1.8169408 35.7377978,1.7477692 36.0012298,1.7477692 C37.5076795,1.7477692 39.0141292,1.7601953 40.5197505,1.7394852 C40.9070286,1.7341006 41.3386262,1.9105503 41.686141,1.5456391 C41.7250759,1.5050473 41.9284487,1.6371775 42.0601647,1.6661716 C42.2349576,1.7046923 42.5195138,1.8016154 42.5725316,1.7320296 C42.7825316,1.4574142 42.9067919,1.6972367 43.086141,1.7254024 C43.2646617,1.7531538 43.4721765,1.5361124 43.6668511,1.5361124 C43.9812298,1.5361124 44.3486262,1.3791302 44.5996321,1.724574 C44.8179162,1.4661124 45.118212,1.5216154 45.400283,1.5241006 C45.6864961,1.5265858 46.0050168,1.4309053 46.2088037,1.7440414 C46.4117623,1.4234497 46.7352534,1.5257574 47.0202239,1.524929 C48.9031824,1.5191302 50.7865552,1.5655207 52.667857,1.5096036 C54.5193363,1.4541006 56.3873836,1.7668225 58.2231233,1.2958757 C58.4492771,1.5129172 58.7429458,1.3961124 58.9964369,1.4164083 C59.3236558,1.4433314 59.6612298,1.306645 59.9946617,1.3054024 C60.3806972,1.3041598 60.8027682,1.1720296 61.135786,1.5021479 C61.504425,1.0983018 61.9848984,1.308716 62.4057268,1.3070592 C67.3757268,1.2900769 72.346141,1.2967041 77.3165552,1.2942189 C77.6793955,1.2942189 78.0426499,1.2722663 82.3428866,1.1649882" id="Fill-341"></path>
        </g>
    </g>
</svg>